PathFileType	4	(X/Y/Z)	Demo_SinglePerson_0-99_filt_butterworth.trc
DataRate	CameraRate	NumFrames	NumMarkers	Units	OrigDataRate	OrigDataStartFrame	OrigNumFrames
60	60	9	22	m	60	25	100
Frame#	Time	Hip			RHip			RKnee			RAnkle			RBigToe			RSmallToe			RHeel			LHip			LKnee			LAnkle			LBigToe			LSmallToe			LHeel			Neck			Head			Nose			RShoulder			RElbow			RWrist			LShoulder			LElbow			LWrist			
		X1	Y1	Z1	X2	Y2	Z2	X3	Y3	Z3	X4	Y4	Z4	X5	Y5	Z5	X6	Y6	Z6	X7	Y7	Z7	X8	Y8	Z8	X9	Y9	Z9	X10	Y10	Z10	X11	Y11	Z11	X12	Y12	Z12	X13	Y13	Z13	X14	Y14	Z14	X15	Y15	Z15	X16	Y16	Z16	X17	Y17	Z17	X18	Y18	Z18	X19	Y19	Z19	X20	Y20	Z20	X21	Y21	Z21	X22	Y22	Z22	
25	0.4166666666666667	-0.07351380688042976	0.9144154269260593	-1.208914497572344	-0.15909186645817278	0.9475472036120394	-1.2056447582426437	-0.36770280626068225	0.5971810448398178	-1.07784241272759	-0.3068865405639567	0.24375662246456786	-1.290667650029272	-0.3775602961247364	0.1505334359287549	-1.133667014657436	-0.40513770454829556	0.16105449369402966	-1.2163395135336188	-0.27829690564600534	0.20430434376410045	-1.3390400265887012	0.012013050067896642	0.8804942882021634	-1.1687835437751573	-0.057530088873925064	0.5008972404654892	-1.0187643552505945	-0.01647835851309595	0.15096282443924675	-1.1559259134709903	-0.04638704781251586	0.08382188762420263	-0.9863847006176953	0.017241115920544788	0.07833602038402501	-1.0260339320707232	-0.0032554142827250945	0.10315134516147029	-1.1985168039216347	0.1803483612564649	1.4044123850501835	-1.148786933180566	0.25723004322753784	1.6213274218794174	-0.9866327561696902	0.1871971256810853	1.4718451786107878	-0.9695667126617297	-0.0005580099460247075	1.4305752965356473	-1.2504728628435255	-0.2553503840747321	1.3780085875681196	-1.323486982461012	-0.3564895500411826	1.4523420838272754	-1.0918679110223786	0.30904886800040055	1.2590644032574039	-1.161514773074571	0.34079503629960733	0.9740840456163278	-1.150070138264485	0.3337616903564483	0.7268203662426005	-1.0860764757744164
26	0.4333333333333333	-0.07626865647583397	0.9145399691131858	-1.1995077258379372	-0.16132567230952088	0.9492555167705342	-1.1956485903631624	-0.38333452494851605	0.6056999742866802	-1.0658602109077346	-0.34484957459695414	0.24351478964507606	-1.2673472328435678	-0.420511108983602	0.15171505574853697	-1.108448941105302	-0.4458467134918134	0.1647069271376813	-1.1900637291988354	-0.31781636891022574	0.20165261982926816	-1.313778533925814	0.010581279016699587	0.8786271524208276	-1.1616550420635054	-0.05784296028805367	0.49905715671759726	-1.011092282295253	-0.016578014199751672	0.1508090311877963	-1.1555842431265066	-0.04536520266241455	0.08303932647477796	-0.9883443810496444	0.01600966780424428	0.07686948506595655	-1.026372590964894	-0.0038258383120409914	0.10348182079271435	-1.1984430285410943	0.1861064890815682	1.3988672772268693	-1.1413287225049185	0.2680935091877015	1.6152206890602354	-0.9762766029093917	0.1976838025629058	1.4631974448087786	-0.963133324062992	0.004994979887313223	1.4286487665461611	-1.2423628620908755	-0.25039697447208065	1.3839532399640928	-1.3168969158244719	-0.3494657835449594	1.4654389239902332	-1.088742590115254	0.31295034120960274	1.2520732391288307	-1.1546271066632945	0.34108881392031354	0.968292992050325	-1.1418344458155332	0.3313913795865801	0.7206819575388557	-1.07427752211857
27	0.45	-0.07930306470362312	0.9144562407561669	-1.189537009573647	-0.16397053692533636	0.9507049841049922	-1.1849015199365787	-0.39769748542164757	0.6137519079134607	-1.0547027030281044	-0.38261895715964406	0.24512512880010837	-1.2453594357225248	-0.46086720399384334	0.15519364650912099	-1.086068630464086	-0.48500412918144065	0.1696887429937432	-1.1657326368475514	-0.35746949340552325	0.20127727319074928	-1.2897178567621104	0.008310086369997579	0.8767028146836938	-1.1534785094167774	-0.05842463765332685	0.4973172154048553	-1.002638138223905	-0.01669325943799622	0.1507494692056865	-1.155045406746705	-0.04261547836906442	0.08278568357945568	-0.9902802699603972	0.01594681407047859	0.07572875957555751	-1.0274099215855257	-0.004487491252824413	0.10343633967737208	-1.1986583761326288	0.1912550185355349	1.3930533164665522	-1.134023948677694	0.2784273740715825	1.608721217739611	-0.9673451795598067	0.20911840348013366	1.4530894902826326	-0.9586780822874131	0.010080494162822834	1.426600853480535	-1.2340833941604015	-0.24533979345149323	1.3891859457831464	-1.3099473976725926	-0.3424664471020613	1.478168814504508	-1.084837050891868	0.3165794940563366	1.2449821436470179	-1.1483773703366855	0.3413689181480519	0.96235203885755	-1.1342152332999444	0.32913020953929495	0.7140768943604522	-1.063303634052624
28	0.4666666666666667	-0.08256363386941873	0.9142830315664876	-1.1795510719580395	-0.16700656753783472	0.9520480207837523	-1.1740020500919082	-0.4106039296362143	0.6213821403793517	-1.0444033181641277	-0.4195791057767456	0.24864467738952306	-1.2246883399161737	-0.49819333721658876	0.16161653634769013	-1.0653253560893368	-0.5223869672158238	0.17664400128174387	-1.1429294970095196	-0.3968909172371149	0.20345027394342308	-1.2668853216881215	0.005230684125820532	0.8746362191528454	-1.1448454281535372	-0.05955440101429811	0.4958141657803554	-0.9938148297082074	-0.01690413888869109	0.15072188008901183	-1.154252235520754	-0.03923073353149706	0.08266593700543777	-0.9918573556527003	0.01682605146610342	0.07503985002718297	-1.0287847249242574	-0.005415246050716528	0.1032096157190581	-1.1989608822025877	0.19609221552716005	1.3871460420430635	-1.1269216699413995	0.28805669505449505	1.601924860997147	-0.9605569418387159	0.2202665549417703	1.4430952572113926	-0.9551002122878348	0.015119542932710704	1.424511428401575	-1.225932180254777	-0.24005154714986057	1.3936980575771631	-1.3025012257413608	-0.33547239075105456	1.4906112181962499	-1.08024194221477	0.3199198109027501	1.237987289791057	-1.1427691364563948	0.34166365211309113	0.9561864508103127	-1.1269447088868627	0.3270607249259427	0.7070685293872965	-1.053028854141444
29	0.4833333333333333	-0.08604262876832722	0.9142076507309813	-1.1700562353283832	-0.1703642948715298	0.9533546076331151	-1.1634594497471975	-0.42197684676634484	0.6286754557917791	-1.0349292557236944	-0.4551224126876788	0.25380844046887313	-1.205056306361724	-0.5324145420398131	0.17115696539418934	-1.0449957108071948	-0.5577479252254167	0.18598503428827182	-1.1210014854446952	-0.4356171046561943	0.20789905260495598	-1.2450434136693345	0.0015243565794206856	0.8723888394346268	-1.1362778113484464	-0.061232872735119875	0.4944755362750664	-0.9855775053882241	-0.01725255722025804	0.1507739032018647	-1.1531282506879967	-0.036264410992109905	0.08249895046151996	-0.9925648543326928	0.01791050140982999	0.07485553796388487	-1.0297766011343574	-0.006516421942857742	0.10306370355396618	-1.1992624342394325	0.20092170621293393	1.3813563025487572	-1.120013665937273	0.29704552763185	1.5951243509739248	-0.9559117489205637	0.22991038961585586	1.4348909747098582	-0.950937627706159	0.02025212603456142	1.4224755884574598	-1.2179514268107101	-0.23450334181879906	1.397606695019184	-1.2944195051018639	-0.32865638001280395	1.502739676041282	-1.074998547073403	0.3229393442181479	1.2312382987783337	-1.1377604007080047	0.3420111009254271	0.9498279437785303	-1.1198876397964264	0.32537449458895185	0.6998963341053587	-1.0434662198326874
30	0.5	-0.08968798699466862	0.9143587250022602	-1.1614162394836978	-0.1739764126422733	0.9545313446410252	-1.1535182746843577	-0.4320472578560387	0.6357589321551345	-1.026159227686716	-0.48869297189418437	0.2603578077774275	-1.1860927926514224	-0.5637526753209007	0.18332055355373952	-1.0245664812374313	-0.5909735693201643	0.19748773431917474	-1.0994275550898989	-0.47291849619523946	0.21414097062664605	-1.2239985033374465	-0.0026085110852948974	0.8700626445917362	-1.1281860531167827	-0.06304623374014186	0.4928518213311912	-0.9791394461874463	-0.01775105148766545	0.15107569493389061	-1.1517718668256205	-0.03426458679651174	0.08243628176736896	-0.9924561536742607	0.01863341678321566	0.07526407352076513	-1.030163460759936	-0.007647359328448166	0.10324294400796195	-1.1996130104708198	0.20582636309063024	1.37573864268122	-1.1132338449051056	0.3056295655949008	1.5884463313986923	-0.9529718657857303	0.2375521383514617	1.4292566671255764	-0.9457286022066594	0.0253688020377134	1.4204736179155861	-1.2099065820655817	-0.22886251248051398	1.4012046957216135	-1.285664561937324	-0.32218746898014244	1.5144845267710718	-1.0692891413904853	0.3256321361534672	1.2246077105059414	-1.1332108558649343	0.34246920708071193	0.9432084692044751	-1.1130554932455965	0.32418674391000274	0.692764006150357	-1.0347472285726882
31	0.5166666666666667	-0.0933709793029756	0.9147412162140506	-1.153712022400192	-0.17776256367288085	0.9554241358949033	-1.144269359705182	-0.44128253018112773	0.6426857084142164	-1.0178414272891976	-0.5199079285304833	0.2682293882679276	-1.1675987601281725	-0.5926379554659124	0.1972416547140221	-1.004350456379922	-0.6220478596860948	0.21057634976367334	-1.078071523422733	-0.5079402656437878	0.22186139036339025	-1.2037619971541917	-0.00695331878553572	0.8677291183333096	-1.1206995136403881	-0.06439757953159621	0.4906156455470257	-0.9749749288990514	-0.018386417494978602	0.1517325649536469	-1.1504292278484254	-0.03328520107728193	0.08266525778026299	-0.9919126886687967	0.018790208166498897	0.07621987554258979	-1.0300365610085254	-0.008734314268382214	0.10392371397075742	-1.2001600941564503	0.21075177231666337	1.3702322075034583	-1.1066517697371392	0.31405737703737946	1.5815829866766011	-0.9513405880168616	0.24344977809585672	1.4259176506164077	-0.940124433962965	0.030375322093555084	1.4184233300845364	-1.2017706419886591	-0.22334957349031798	1.4048871967135028	-1.2764026788377805	-0.31592657242500055	1.525800329353475	-1.0632918697078764	0.328061344082495	1.2177465753951122	-1.1289560220818353	0.3431861428694145	0.9362071341260162	-1.106685299093008	0.32352849122782995	0.685730539908755	-1.027027364326811
32	0.5333333333333333	-0.09693861863070419	0.9152801858886922	-1.1467651518352147	-0.181561010710668	0.9560134082034819	-1.1357268966664522	-0.4500624189967256	0.6494758110714122	-1.0096404042984546	-0.54865363178815	0.2773307261619348	-1.149753560821422	-0.6195750723440024	0.21193529001169437	-0.9851121330737402	-0.650835128034332	0.22456258825460995	-1.0572781289896105	-0.5400663329545435	0.2308890711137185	-1.1846171671885082	-0.01126455452858536	0.8653451908163466	-1.1136671019159685	-0.06490824355891688	0.48806902606551145	-0.9722732277187626	-0.01911314849508072	0.15262454088931954	-1.1492594253255353	-0.03305735116676049	0.08313651358155032	-0.9910749575355913	0.018414601918742855	0.07742240963731375	-1.029347800905535	-0.009719134098745627	0.10509218732645832	-1.200979736012092	0.2156637221784466	1.3648203408349497	-1.1005115665708352	0.3225663272202838	1.5741151201943626	-0.9504009057947049	0.2482994031868289	1.4236623261252361	-0.93511305181968	0.03526513041891692	1.4163228443778826	-1.1938509639971502	-0.2181400443971543	1.4090329766818979	-1.2669014796404687	-0.3094219943780329	1.5368041031278998	-1.0569054896355556	0.330303699000437	1.2103608957833354	-1.1249062696445413	0.3443622204847194	0.9288742694838409	-1.1012100026913374	0.3234736787634967	0.6787766221660927	-1.0203907573179523
33	0.55	-0.10029523668744803	0.9159067719927152	-1.1404278843827236	-0.18511925827561487	0.9565574574284921	-1.127829236991652	-0.4584696552096502	0.6562724454291304	-1.0013703243758236	-0.5751341822764207	0.2872311836108281	-1.1330078919368691	-0.6450564954612235	0.22627177068640206	-0.9676669611102312	-0.6771574371601864	0.2385571185065136	-1.0378167497845727	-0.5692865854700029	0.24085798711486212	-1.167022890549537	-0.015275886954996216	0.8629979289579894	-1.1069907922323359	-0.06458664621547841	0.4857764274567826	-0.9698516169260425	-0.019863696840785205	0.15353457293278194	-1.1482423122967518	-0.03319046214741327	0.08361973110984865	-0.9900586260591202	0.01776841205940154	0.07845314994990708	-1.028288202154505	-0.010527006100014471	0.10649213495892637	-1.2019845947564838	0.22047577657994116	1.359520309653301	-1.0949049702642126	0.33130450621103763	1.5657938492727328	-0.9493630975487177	0.2530479762194371	1.4204992693910818	-0.9315698536788093	0.04000625813613256	1.4142537883064112	-1.1862522824525097	-0.21333778645571078	1.4139272440811288	-1.257266015783849	-0.3021840189785245	1.5477132700094791	-1.049878469703242	0.3324016110768143	1.2024910814959242	-1.1210360243620117	0.34600745344573497	0.9215906425427134	-1.0969392014956034	0.32417848364759594	0.6719825241553867	-1.0147406294663357
